<svg id="0465fb0d-fb18-4d17-aece-43227141bc8d" data-name="Calque 1" xmlns="http://www.w3.org/2000/svg" width="1000" height="1000" viewBox="0 0 1000 1000"><title>Resin Code</title><path d="M489.55811,656.27037V500.54381l-44.07861,38.2793v-50.749l44.07861-38.27881h47.55908v206.4751Z"/><path d="M880.7341,630.60843,822.96219,530.5458l-74.37944,42.94348,57.77191,100.06214c14.65023,25.37569,4.88018,47.86081-.001,56.31421-4.88018,8.4534-19.39483,28.19869-48.69529,28.19869H550v-43.111l-148.75889,85.886L550,886.72528v-42.661H757.6584c51.377,0,97.38574-26.70467,123.07474-71.1982A140.93216,140.93216,0,0,0,880.7341,630.60843Z"/><path d="M376.92487,184.33227,319.15314,284.39493l74.379,42.94323,57.77215-100.0629c14.65046-25.37508,38.93483-28.1153,48.69584-28.11456,9.76095-.00034,34.04576,2.73889,48.69647,28.11468L652.73233,407.47051l-37.34058,21.47162L764,514.82811v-171.772l-37.03887,21.47137L623.00075,184.33239c-25.689-44.49464-71.66129-71.0582-123.03825-71.05767C448.585,113.2744,402.6129,139.83818,376.92487,184.33227Z"/><path d="M242.34191,844.06432H358v-86H242.34191c-29.30069,0-43.81508-19.74542-48.69584-28.19848s-14.65044-30.89674-.00021-56.27168L297.74591,493.37762,335,514.82829v-171.772l-148.823,85.886,37.15741,21.47134L119.28244,630.6092a140.92937,140.92937,0,0,0-.0078,142.25664C144.96309,817.36017,190.96446,844.06432,242.34191,844.06432Z"/></svg>