<svg id="1f2a95cd-6b92-4645-b990-c628db24c2bd" data-name="Calque 1" xmlns="http://www.w3.org/2000/svg" width="1000" height="1000" viewBox="0 0 1000 1000"><title>Resin Code</title><path d="M544.7168,640.25684c-8.98926,8.98926-24.64941,17.68945-47.84863,17.68945-23.2002,0-40.01855-8.99023-49.00879-17.97949-14.79-14.79-16.82031-31.60937-17.98047-46.68945h47.55957c1.4502,13.62988,7.25,21.75,19.42969,21.75,5.7998,0,9.56934-1.4502,13.33984-5.21973,4.34961-4.35059,6.08984-11.89062,6.08984-24.07031,0-22.90918-7.83008-29.28906-19.42969-29.28906-13.91992,0-17.39941,9.28027-19.42969,14.79H433.64941V449.731H559.50684V492.6499H476.8584v31.89941c4.05957-3.18994,15.0791-8.12012,27.83984-8.12012,17.97949,0,31.6084,6.08984,40.01855,14.49951,16.81934,16.81982,19.13965,35.37988,19.13965,54.80859C563.85645,610.67676,560.08691,624.88672,544.7168,640.25684Z"/><path d="M876.7341,630.54411,818.96219,530.48148,744.58275,573.425,802.35466,673.4871c14.65023,25.37569,4.88018,47.86081-.001,56.31421C797.47351,738.25471,782.95886,758,753.6584,758H546V714.889L397.24111,800.775,546,886.661V844H753.6584c51.377,0,97.38574-26.70467,123.07474-71.1982A140.93216,140.93216,0,0,0,876.7341,630.54411Z"/><path d="M372.92487,184.26795,315.15314,284.33061l74.379,42.94323,57.77215-100.0629c14.65046-25.37508,38.93483-28.1153,48.69584-28.11456,9.76095-.00034,34.04576,2.73889,48.69647,28.11468L648.73233,407.40619l-37.34058,21.47162L760,514.76379v-171.772L722.96113,364.4632,619.00075,184.26807c-25.689-44.49464-71.66129-71.0582-123.03825-71.05767C444.585,113.21008,398.6129,139.77386,372.92487,184.26795Z"/><path d="M238.34191,844H354V758H238.34191c-29.30069,0-43.81508-19.74542-48.69584-28.19848s-14.65044-30.89674-.00021-56.27168L293.74591,493.31331,331,514.764V342.992L182.177,428.878l37.15741,21.47134-104.052,180.19555a140.92937,140.92937,0,0,0-.0078,142.25664C140.96309,817.29585,186.96446,844,238.34191,844Z"/></svg>