<svg id="f1a3a51e-5364-49f6-94bf-0468fb630a7e" data-name="Calque 1" xmlns="http://www.w3.org/2000/svg" width="1000" height="1000" viewBox="0 0 1000 1000"><title>Resin Code</title><path d="M500.28809,657.94629c-34.21973,0-68.72852-18.26953-68.72852-64.66895h47.55957c0,14.5,9.2793,21.75,21.16895,21.75,12.46973,0,21.16895-7.25,21.16895-22.04,0-12.46973-9.2793-21.749-22.03906-21.749H492.748v-41.1792H499.418c14.21,0,19.71973-10.1499,19.71973-19.42969,0-13.0498-8.99023-19.71973-18.84961-19.71973-9.86035,0-18.84961,6.96-18.84961,19.42969H433.87891c0-38.85889,29.58008-62.34863,66.40918-62.34863,38.2793,0,66.4082,25.51953,66.4082,61.189,0,22.61914-11.01953,33.63916-21.459,40.30859,11.30957,7.83008,23.7793,20.2998,23.7793,44.94922C569.0166,637.64648,536.53711,657.94629,500.28809,657.94629Z"/><path d="M880.7341,630.54411,822.96219,530.48148,748.58275,573.425,806.35466,673.4871c14.65023,25.37569,4.88018,47.86081-.001,56.31421C801.47351,738.25471,786.95886,758,757.6584,758H550V714.889L401.24111,800.775,550,886.661V844H757.6584c51.377,0,97.38574-26.70467,123.07474-71.1982A140.93216,140.93216,0,0,0,880.7341,630.54411Z"/><path d="M376.92487,184.26795,319.15314,284.33061l74.379,42.94323,57.77215-100.0629c14.65046-25.37508,38.93483-28.1153,48.69584-28.11456,9.76095-.00034,34.04576,2.73889,48.69647,28.11468L652.73233,407.40619l-37.34058,21.47162L764,514.76379v-171.772L726.96113,364.4632,623.00075,184.26807c-25.689-44.49464-71.66129-71.0582-123.03825-71.05767C448.585,113.21008,402.6129,139.77386,376.92487,184.26795Z"/><path d="M242.34191,844H358V758H242.34191c-29.30069,0-43.81508-19.74542-48.69584-28.19848s-14.65044-30.89674-.00021-56.27168L297.74591,493.31331,335,514.764V342.992L186.177,428.878l37.15741,21.47134-104.052,180.19555a140.92937,140.92937,0,0,0-.0078,142.25664C144.96309,817.29585,190.96446,844,242.34191,844Z"/></svg>